<?xml version="1.0" encoding="UTF-8" standalone="no"?>
<!DOCTYPE svg PUBLIC "-//W3C//DTD SVG 1.1//EN"
 "http://www.w3.org/Graphics/SVG/1.1/DTD/svg11.dtd">
<!-- Generated by graphviz version 2.40.1 (20161225.0304)
 -->
<!-- Title: boxes_and_circles Pages: 1 -->
<svg width="581pt" height="213pt"
 viewBox="0.00 0.00 581.46 212.69" xmlns="http://www.w3.org/2000/svg" xmlns:xlink="http://www.w3.org/1999/xlink">
<g id="graph0" class="graph" transform="scale(1 1) rotate(0) translate(4 208.6901)">
<title>boxes_and_circles</title>
<polygon fill="#ffffff" stroke="transparent" points="-4,4 -4,-208.6901 577.4562,-208.6901 577.4562,4 -4,4"/>
<!-- A -->
<g id="node1" class="node">
<title>A</title>
<polygon fill="none" stroke="#000000" points="120.3768,-123.6693 -.1258,-123.6693 -.1258,-82.4655 120.3768,-82.4655 120.3768,-123.6693"/>
<text text-anchor="middle" x="60.1255" y="-107.2674" font-family="Helvetica,sans-Serif" font-size="14.00" fill="#000000">Start</text>
<text text-anchor="middle" x="60.1255" y="-90.4674" font-family="Helvetica,sans-Serif" font-size="14.00" fill="#000000">Wager $1 on red</text>
</g>
<!-- B -->
<g id="node2" class="node">
<title>B</title>
<ellipse fill="none" stroke="#000000" cx="212.8992" cy="-103.0674" rx="56.7968" ry="56.7968"/>
<text text-anchor="middle" x="212.8992" y="-98.8674" font-family="Helvetica,sans-Serif" font-size="14.00" fill="#000000">Play game</text>
</g>
<!-- A&#45;&gt;B -->
<g id="edge1" class="edge">
<title>A&#45;&gt;B</title>
<path fill="none" stroke="#000000" d="M120.5057,-103.0674C128.807,-103.0674 137.3724,-103.0674 145.7855,-103.0674"/>
<polygon fill="#000000" stroke="#000000" points="145.9441,-106.5675 155.944,-103.0674 145.944,-99.5675 145.9441,-106.5675"/>
</g>
<!-- E -->
<g id="node3" class="node">
<title>E</title>
<polygon fill="none" stroke="#000000" points="377.5474,-148.0674 305.5474,-148.0674 305.5474,-112.0674 377.5474,-112.0674 377.5474,-148.0674"/>
<text text-anchor="middle" x="341.5474" y="-125.8674" font-family="Helvetica,sans-Serif" font-size="14.00" fill="#000000">Red</text>
</g>
<!-- B&#45;&gt;E -->
<g id="edge2" class="edge">
<title>B:e&#45;&gt;E:w</title>
<path fill="none" stroke="#000000" d="M269.5474,-103.0674C285.4849,-103.0674 286.1821,-120.2127 295.9283,-127.1779"/>
<polygon fill="#000000" stroke="#000000" points="294.9632,-130.5425 305.5474,-130.0674 296.9771,-123.8384 294.9632,-130.5425"/>
</g>
<!-- F -->
<g id="node5" class="node">
<title>F</title>
<polygon fill="none" stroke="#000000" points="377.5474,-94.0674 305.5474,-94.0674 305.5474,-58.0674 377.5474,-58.0674 377.5474,-94.0674"/>
<text text-anchor="middle" x="341.5474" y="-71.8674" font-family="Helvetica,sans-Serif" font-size="14.00" fill="#000000">Black</text>
</g>
<!-- B&#45;&gt;F -->
<g id="edge3" class="edge">
<title>B:e&#45;&gt;F:w</title>
<path fill="none" stroke="#000000" d="M269.5474,-103.0674C285.4849,-103.0674 286.1821,-85.9221 295.9283,-78.9569"/>
<polygon fill="#000000" stroke="#000000" points="296.9771,-82.2964 305.5474,-76.0674 294.9632,-75.5923 296.9771,-82.2964"/>
</g>
<!-- C -->
<g id="node4" class="node">
<title>C</title>
<polygon fill="none" stroke="#000000" points="565.5018,-155.0674 421.5018,-155.0674 421.5018,-119.0674 565.5018,-119.0674 565.5018,-155.0674"/>
<text text-anchor="middle" x="493.5018" y="-132.8674" font-family="Helvetica,sans-Serif" font-size="14.00" fill="#000000">Wager $1 on red</text>
</g>
<!-- E&#45;&gt;C -->
<g id="edge4" class="edge">
<title>E:e&#45;&gt;C:w</title>
<path fill="none" stroke="#000000" d="M377.5474,-130.0674C393.4653,-130.0674 399.4178,-134.6001 411.443,-136.3706"/>
<polygon fill="#000000" stroke="#000000" points="411.2838,-139.8679 421.5018,-137.0674 411.7676,-132.8846 411.2838,-139.8679"/>
</g>
<!-- C&#45;&gt;B -->
<g id="edge6" class="edge">
<title>C:n&#45;&gt;B:n</title>
<path fill="none" stroke="#000000" d="M493.5018,-155.0674C493.5018,-213.901 243.786,-221.683 215.4979,-170.0182"/>
<polygon fill="#000000" stroke="#000000" points="218.8125,-168.8585 212.8992,-160.0674 212.0396,-170.6273 218.8125,-168.8585"/>
</g>
<!-- D -->
<g id="node6" class="node">
<title>D</title>
<polygon fill="none" stroke="#000000" points="573.4106,-89.6693 413.593,-89.6693 413.593,-48.4655 573.4106,-48.4655 573.4106,-89.6693"/>
<text text-anchor="middle" x="493.5018" y="-73.2674" font-family="Helvetica,sans-Serif" font-size="14.00" fill="#000000">Wager twice the losses</text>
<text text-anchor="middle" x="493.5018" y="-56.4674" font-family="Helvetica,sans-Serif" font-size="14.00" fill="#000000">from previous wager</text>
</g>
<!-- F&#45;&gt;D -->
<g id="edge5" class="edge">
<title>F:e&#45;&gt;D:w</title>
<path fill="none" stroke="#000000" d="M377.5474,-76.0674C389.7721,-76.0674 394.7412,-72.1299 403.3381,-70.1612"/>
<polygon fill="#000000" stroke="#000000" points="403.9771,-73.6128 413.5474,-69.0674 403.2314,-66.6526 403.9771,-73.6128"/>
</g>
<!-- D&#45;&gt;B -->
<g id="edge7" class="edge">
<title>D:s&#45;&gt;B:s</title>
<path fill="none" stroke="#000000" d="M493.5018,-48.0674C493.5018,10.7583 243.786,15.8701 215.4979,-36.0902"/>
<polygon fill="#000000" stroke="#000000" points="212.0328,-35.5081 212.8992,-46.0674 218.8068,-37.2725 212.0328,-35.5081"/>
</g>
</g>
</svg>
